<?xml version="1.0" encoding="UTF-8" standalone="no"?>
<!DOCTYPE svg PUBLIC "-//W3C//DTD SVG 1.1//EN"
 "http://www.w3.org/Graphics/SVG/1.1/DTD/svg11.dtd">
<!-- Generated by graphviz version 10.0.1 (0)
 -->
<!-- Pages: 1 -->
<svg width="1111pt" height="312pt"
 viewBox="0.00 0.00 1111.23 311.75" xmlns="http://www.w3.org/2000/svg" xmlns:xlink="http://www.w3.org/1999/xlink">
<g id="graph0" class="graph" transform="scale(1 1) rotate(0) translate(4 307.75)">
<polygon fill="white" stroke="none" points="-4,4 -4,-307.75 1107.23,-307.75 1107.23,4 -4,4"/>
<!-- 0 -->
<g id="node1" class="node">
<title>0</title>
<ellipse fill="none" stroke="black" cx="83.3" cy="-285.75" rx="83.3" ry="18"/>
<text text-anchor="middle" x="83.3" y="-281.07" font-family="Times,serif" font-size="14.00">0x7ffcfc42f4f4</text>
</g>
<!-- 1 -->
<g id="node2" class="node">
<title>1</title>
<ellipse fill="none" stroke="black" cx="139.3" cy="-196.5" rx="28.06" ry="18"/>
<text text-anchor="middle" x="139.3" y="-191.82" font-family="Times,serif" font-size="14.00">ecx</text>
</g>
<!-- 0&#45;&gt;1 -->
<g id="edge1" class="edge">
<title>0&#45;&gt;1</title>
<path fill="none" stroke="black" d="M94.36,-267.51C102.55,-254.76 113.82,-237.19 123.03,-222.85"/>
<polygon fill="black" stroke="black" points="125.74,-225.11 128.2,-214.8 119.85,-221.32 125.74,-225.11"/>
<text text-anchor="middle" x="142.05" y="-236.45" font-family="Times,serif" font-size="14.00">&quot;Read&quot;</text>
</g>
<!-- 4 -->
<g id="node5" class="node">
<title>4</title>
<ellipse fill="none" stroke="black" cx="260.3" cy="-107.25" rx="29.11" ry="18"/>
<text text-anchor="middle" x="260.3" y="-102.58" font-family="Times,serif" font-size="14.00">edx</text>
</g>
<!-- 1&#45;&gt;4 -->
<g id="edge3" class="edge">
<title>1&#45;&gt;4</title>
<path fill="none" stroke="black" d="M157.42,-182.44C177.38,-168.05 209.7,-144.73 232.79,-128.08"/>
<polygon fill="black" stroke="black" points="234.77,-130.97 240.83,-122.29 230.68,-125.3 234.77,-130.97"/>
<text text-anchor="middle" x="224.05" y="-147.2" font-family="Times,serif" font-size="14.00">&quot;+&quot;</text>
</g>
<!-- 2 -->
<g id="node3" class="node">
<title>2</title>
<ellipse fill="none" stroke="black" cx="270.3" cy="-285.75" rx="85.93" ry="18"/>
<text text-anchor="middle" x="270.3" y="-281.07" font-family="Times,serif" font-size="14.00">0x7ffcfc42f500</text>
</g>
<!-- 3 -->
<g id="node4" class="node">
<title>3</title>
<ellipse fill="none" stroke="black" cx="270.3" cy="-196.5" rx="29.11" ry="18"/>
<text text-anchor="middle" x="270.3" y="-191.82" font-family="Times,serif" font-size="14.00">edx</text>
</g>
<!-- 2&#45;&gt;3 -->
<g id="edge2" class="edge">
<title>2&#45;&gt;3</title>
<path fill="none" stroke="black" d="M270.3,-267.51C270.3,-255.68 270.3,-239.7 270.3,-226"/>
<polygon fill="black" stroke="black" points="273.8,-226.22 270.3,-216.22 266.8,-226.22 273.8,-226.22"/>
<text text-anchor="middle" x="295.05" y="-236.45" font-family="Times,serif" font-size="14.00">&quot;Read&quot;</text>
</g>
<!-- 3&#45;&gt;4 -->
<g id="edge4" class="edge">
<title>3&#45;&gt;4</title>
<path fill="none" stroke="black" d="M268.33,-178.26C266.97,-166.43 265.14,-150.45 263.57,-136.75"/>
<polygon fill="black" stroke="black" points="267.06,-136.49 262.44,-126.96 260.11,-137.29 267.06,-136.49"/>
<text text-anchor="middle" x="279.05" y="-147.2" font-family="Times,serif" font-size="14.00">&quot;+&quot;</text>
</g>
<!-- 5 -->
<g id="node6" class="node">
<title>5</title>
<ellipse fill="none" stroke="black" cx="260.3" cy="-18" rx="84.88" ry="18"/>
<text text-anchor="middle" x="260.3" y="-13.32" font-family="Times,serif" font-size="14.00">0x7ffcfc42f50c</text>
</g>
<!-- 4&#45;&gt;5 -->
<g id="edge5" class="edge">
<title>4&#45;&gt;5</title>
<path fill="none" stroke="black" d="M260.3,-89.01C260.3,-77.18 260.3,-61.2 260.3,-47.5"/>
<polygon fill="black" stroke="black" points="263.8,-47.72 260.3,-37.72 256.8,-47.72 263.8,-47.72"/>
<text text-anchor="middle" x="286.55" y="-57.95" font-family="Times,serif" font-size="14.00">&quot;Write&quot;</text>
</g>
<!-- 6 -->
<g id="node7" class="node">
<title>6</title>
<ellipse fill="none" stroke="black" cx="458.3" cy="-285.75" rx="83.3" ry="18"/>
<text text-anchor="middle" x="458.3" y="-281.07" font-family="Times,serif" font-size="14.00">0x7ffcfc42f4f8</text>
</g>
<!-- 7 -->
<g id="node8" class="node">
<title>7</title>
<ellipse fill="none" stroke="black" cx="478.3" cy="-196.5" rx="28.06" ry="18"/>
<text text-anchor="middle" x="478.3" y="-191.82" font-family="Times,serif" font-size="14.00">ecx</text>
</g>
<!-- 6&#45;&gt;7 -->
<g id="edge6" class="edge">
<title>6&#45;&gt;7</title>
<path fill="none" stroke="black" d="M462.25,-267.51C464.99,-255.56 468.7,-239.38 471.86,-225.58"/>
<polygon fill="black" stroke="black" points="475.2,-226.71 474.02,-216.18 468.37,-225.14 475.2,-226.71"/>
<text text-anchor="middle" x="495.05" y="-236.45" font-family="Times,serif" font-size="14.00">&quot;Read&quot;</text>
</g>
<!-- 10 -->
<g id="node11" class="node">
<title>10</title>
<ellipse fill="none" stroke="black" cx="507.3" cy="-107.25" rx="29.11" ry="18"/>
<text text-anchor="middle" x="507.3" y="-102.58" font-family="Times,serif" font-size="14.00">edx</text>
</g>
<!-- 7&#45;&gt;10 -->
<g id="edge8" class="edge">
<title>7&#45;&gt;10</title>
<path fill="none" stroke="black" d="M483.89,-178.68C487.92,-166.56 493.44,-149.95 498.11,-135.9"/>
<polygon fill="black" stroke="black" points="501.32,-137.35 501.15,-126.76 494.67,-135.14 501.32,-137.35"/>
<text text-anchor="middle" x="509.05" y="-147.2" font-family="Times,serif" font-size="14.00">&quot;+&quot;</text>
</g>
<!-- 8 -->
<g id="node9" class="node">
<title>8</title>
<ellipse fill="none" stroke="black" cx="645.3" cy="-285.75" rx="85.93" ry="18"/>
<text text-anchor="middle" x="645.3" y="-281.07" font-family="Times,serif" font-size="14.00">0x7ffcfc42f504</text>
</g>
<!-- 9 -->
<g id="node10" class="node">
<title>9</title>
<ellipse fill="none" stroke="black" cx="589.3" cy="-196.5" rx="29.11" ry="18"/>
<text text-anchor="middle" x="589.3" y="-191.82" font-family="Times,serif" font-size="14.00">edx</text>
</g>
<!-- 8&#45;&gt;9 -->
<g id="edge7" class="edge">
<title>8&#45;&gt;9</title>
<path fill="none" stroke="black" d="M634.24,-267.51C626.05,-254.76 614.78,-237.19 605.57,-222.85"/>
<polygon fill="black" stroke="black" points="608.75,-221.32 600.4,-214.8 602.86,-225.11 608.75,-221.32"/>
<text text-anchor="middle" x="648.05" y="-236.45" font-family="Times,serif" font-size="14.00">&quot;Read&quot;</text>
</g>
<!-- 9&#45;&gt;10 -->
<g id="edge9" class="edge">
<title>9&#45;&gt;10</title>
<path fill="none" stroke="black" d="M575.02,-180.3C562.32,-166.79 543.56,-146.83 529.01,-131.35"/>
<polygon fill="black" stroke="black" points="531.86,-129.27 522.46,-124.38 526.75,-134.06 531.86,-129.27"/>
<text text-anchor="middle" x="569.05" y="-147.2" font-family="Times,serif" font-size="14.00">&quot;+&quot;</text>
</g>
<!-- 11 -->
<g id="node12" class="node">
<title>11</title>
<ellipse fill="none" stroke="black" cx="507.3" cy="-18" rx="85.93" ry="18"/>
<text text-anchor="middle" x="507.3" y="-13.32" font-family="Times,serif" font-size="14.00">0x7ffcfc42f510</text>
</g>
<!-- 10&#45;&gt;11 -->
<g id="edge10" class="edge">
<title>10&#45;&gt;11</title>
<path fill="none" stroke="black" d="M507.3,-89.01C507.3,-77.18 507.3,-61.2 507.3,-47.5"/>
<polygon fill="black" stroke="black" points="510.8,-47.72 507.3,-37.72 503.8,-47.72 510.8,-47.72"/>
<text text-anchor="middle" x="533.55" y="-57.95" font-family="Times,serif" font-size="14.00">&quot;Write&quot;</text>
</g>
<!-- 12 -->
<g id="node13" class="node">
<title>12</title>
<ellipse fill="none" stroke="black" cx="831.3" cy="-285.75" rx="82.25" ry="18"/>
<text text-anchor="middle" x="831.3" y="-281.07" font-family="Times,serif" font-size="14.00">0x7ffcfc42f4fc</text>
</g>
<!-- 13 -->
<g id="node14" class="node">
<title>13</title>
<ellipse fill="none" stroke="black" cx="865.3" cy="-196.5" rx="28.06" ry="18"/>
<text text-anchor="middle" x="865.3" y="-191.82" font-family="Times,serif" font-size="14.00">ecx</text>
</g>
<!-- 12&#45;&gt;13 -->
<g id="edge11" class="edge">
<title>12&#45;&gt;13</title>
<path fill="none" stroke="black" d="M838.02,-267.51C842.75,-255.36 849.19,-238.84 854.62,-224.9"/>
<polygon fill="black" stroke="black" points="857.79,-226.4 858.16,-215.82 851.27,-223.86 857.79,-226.4"/>
<text text-anchor="middle" x="877.05" y="-236.45" font-family="Times,serif" font-size="14.00">&quot;Read&quot;</text>
</g>
<!-- 16 -->
<g id="node17" class="node">
<title>16</title>
<ellipse fill="none" stroke="black" cx="940.3" cy="-107.25" rx="29.11" ry="18"/>
<text text-anchor="middle" x="940.3" y="-102.58" font-family="Times,serif" font-size="14.00">edx</text>
</g>
<!-- 13&#45;&gt;16 -->
<g id="edge13" class="edge">
<title>13&#45;&gt;16</title>
<path fill="none" stroke="black" d="M878.36,-180.3C889.8,-167 906.61,-147.44 919.83,-132.06"/>
<polygon fill="black" stroke="black" points="922.28,-134.58 926.15,-124.71 916.98,-130.02 922.28,-134.58"/>
<text text-anchor="middle" x="923.05" y="-147.2" font-family="Times,serif" font-size="14.00">&quot;+&quot;</text>
</g>
<!-- 14 -->
<g id="node15" class="node">
<title>14</title>
<ellipse fill="none" stroke="black" cx="1017.3" cy="-285.75" rx="85.93" ry="18"/>
<text text-anchor="middle" x="1017.3" y="-281.07" font-family="Times,serif" font-size="14.00">0x7ffcfc42f508</text>
</g>
<!-- 15 -->
<g id="node16" class="node">
<title>15</title>
<ellipse fill="none" stroke="black" cx="1008.3" cy="-196.5" rx="29.11" ry="18"/>
<text text-anchor="middle" x="1008.3" y="-191.82" font-family="Times,serif" font-size="14.00">edx</text>
</g>
<!-- 14&#45;&gt;15 -->
<g id="edge12" class="edge">
<title>14&#45;&gt;15</title>
<path fill="none" stroke="black" d="M1015.52,-267.51C1014.3,-255.68 1012.65,-239.7 1011.24,-226"/>
<polygon fill="black" stroke="black" points="1014.74,-225.8 1010.23,-216.21 1007.78,-226.51 1014.74,-225.8"/>
<text text-anchor="middle" x="1039.05" y="-236.45" font-family="Times,serif" font-size="14.00">&quot;Read&quot;</text>
</g>
<!-- 15&#45;&gt;16 -->
<g id="edge14" class="edge">
<title>15&#45;&gt;16</title>
<path fill="none" stroke="black" d="M996.14,-179.9C985.96,-166.83 971.23,-147.94 959.46,-132.84"/>
<polygon fill="black" stroke="black" points="962.42,-130.94 953.51,-125.2 956.9,-135.24 962.42,-130.94"/>
<text text-anchor="middle" x="994.05" y="-147.2" font-family="Times,serif" font-size="14.00">&quot;+&quot;</text>
</g>
<!-- 17 -->
<g id="node18" class="node">
<title>17</title>
<ellipse fill="none" stroke="black" cx="940.3" cy="-18" rx="85.93" ry="18"/>
<text text-anchor="middle" x="940.3" y="-13.32" font-family="Times,serif" font-size="14.00">0x7ffcfc42f514</text>
</g>
<!-- 16&#45;&gt;17 -->
<g id="edge15" class="edge">
<title>16&#45;&gt;17</title>
<path fill="none" stroke="black" d="M940.3,-89.01C940.3,-77.18 940.3,-61.2 940.3,-47.5"/>
<polygon fill="black" stroke="black" points="943.8,-47.72 940.3,-37.72 936.8,-47.72 943.8,-47.72"/>
<text text-anchor="middle" x="966.55" y="-57.95" font-family="Times,serif" font-size="14.00">&quot;Write&quot;</text>
</g>
</g>
</svg>
